<svg width="31" height="19" viewBox="0 0 31 19" fill="none" xmlns="http://www.w3.org/2000/svg">
<g clip-path="url(#clip0_1821_104993)">
<path d="M10.0822 7.03778C10.0756 7.64058 10.0691 8.24449 10.0905 8.847C12.4355 8.83708 14.7808 8.83849 17.1263 8.83989C18.5478 8.84074 19.9694 8.84159 21.3911 8.83992C21.3919 8.16778 21.3919 7.49565 21.3911 6.82263C20.0989 6.82202 18.8067 6.82266 17.5146 6.8233C15.0379 6.82453 12.5612 6.82576 10.0845 6.8182C10.0837 6.89138 10.0829 6.96457 10.0822 7.03778Z" fill="#00A1E4"/>
<path d="M16.1404 0.323242H15.1992C15.2232 0.536368 15.2196 0.750986 15.2161 0.965643C15.2142 1.08145 15.2122 1.19727 15.2147 1.31287C14.8984 1.31111 14.5812 1.31199 14.2641 1.31287C14.2643 1.38461 14.2644 1.4564 14.2645 1.52821C14.2649 1.77951 14.2652 2.0311 14.2692 2.28217C14.3636 2.2819 14.458 2.28187 14.5524 2.28185C14.7726 2.28179 14.993 2.28172 15.2138 2.27863C15.2147 2.4408 15.2151 2.60298 15.2155 2.76504C15.2159 2.92733 15.2164 3.0895 15.2172 3.25146C15.2379 3.25164 15.2586 3.25182 15.2793 3.25201C15.5689 3.25459 15.8585 3.25718 16.1481 3.23819C16.146 2.98273 16.1462 2.72727 16.1463 2.47227C16.1463 2.40857 16.1464 2.34491 16.1464 2.28128C16.3544 2.28246 16.5628 2.28207 16.7711 2.28168C16.8752 2.28148 16.9793 2.28128 17.0832 2.28128C17.0927 1.9576 17.0927 1.63391 17.0901 1.31022C16.8935 1.31188 16.6965 1.31181 16.4997 1.31174C16.3816 1.3117 16.2635 1.31166 16.1455 1.31199C16.1472 0.982113 16.1481 0.65312 16.1404 0.323242Z" fill="#00A1E4"/>
<path d="M22.899 5.35682C22.9813 5.15161 23.0237 4.93167 23.0237 4.70955C23.0237 4.26097 22.851 3.83075 22.5436 3.51355C22.2362 3.19636 21.8192 3.01816 21.3845 3.01816C20.9497 3.01816 20.5327 3.19636 20.2253 3.51355C19.9179 3.83075 19.7452 4.26097 19.7452 4.70955C19.7452 5.15814 19.9179 5.58835 20.2253 5.90555C20.5327 6.22275 20.9497 6.40095 21.3845 6.40095C21.5997 6.40095 21.8129 6.3572 22.0118 6.2722C22.2107 6.1872 22.3914 6.06261 22.5436 5.90555C22.6958 5.74849 22.8166 5.56203 22.899 5.35682Z" fill="#00A1E4"/>
<path d="M19.1318 5.35682C19.2142 5.15161 19.2566 4.93167 19.2566 4.70955C19.2566 4.26097 19.0839 3.83075 18.7765 3.51355C18.469 3.19636 18.0521 3.01816 17.6173 3.01816C17.1825 3.01816 16.7656 3.19636 16.4582 3.51355C16.1507 3.83075 15.978 4.26097 15.978 4.70955C15.978 5.15814 16.1507 5.58835 16.4582 5.90555C16.7656 6.22275 17.1825 6.40095 17.6173 6.40095C17.8326 6.40095 18.0457 6.3572 18.2446 6.2722C18.4435 6.1872 18.6242 6.06261 18.7765 5.90555C18.9287 5.74849 19.0494 5.56203 19.1318 5.35682Z" fill="#00A1E4"/>
<path d="M15.0093 5.90558C15.3167 5.58838 15.4895 5.15817 15.4895 4.70958C15.4895 4.261 15.3167 3.83078 15.0093 3.51359C14.7019 3.19639 14.2849 3.01819 13.8502 3.01819C13.4154 3.01819 12.9984 3.19639 12.691 3.51359C12.3836 3.83078 12.2109 4.261 12.2109 4.70958C12.2109 5.15817 12.3836 5.58838 12.691 5.90558C12.9984 6.22278 13.4154 6.40098 13.8502 6.40098C14.2849 6.40098 14.7019 6.22278 15.0093 5.90558Z" fill="#00A1E4"/>
<path d="M11.2422 5.90558C11.5496 5.58838 11.7223 5.15817 11.7223 4.70958C11.7223 4.261 11.5496 3.83078 11.2422 3.51359C10.9347 3.19639 10.5178 3.01819 10.083 3.01819C9.64826 3.01819 9.2313 3.19639 8.92387 3.51359C8.61645 3.83078 8.44374 4.261 8.44374 4.70958C8.44374 5.15817 8.61645 5.58838 8.92387 5.90558C9.2313 6.22278 9.64826 6.40098 10.083 6.40098C10.5178 6.40098 10.9347 6.22278 11.2422 5.90558Z" fill="#00A1E4"/>
<path d="M20.2357 10.5601C19.6388 10.5591 19.0419 10.558 18.445 10.5601C18.4442 11.8535 18.4444 13.1469 18.4446 14.4403C18.4448 15.7336 18.445 17.0267 18.4442 18.3197C19.4067 18.3206 20.3693 18.3206 21.3319 18.3206C21.3327 17.5062 21.3324 16.6918 21.3321 15.8775C21.3317 14.9277 21.3314 13.9779 21.3327 13.0284C21.4133 13.0726 21.4647 13.1416 21.4853 13.2362C21.7273 13.9507 21.972 14.6642 22.2166 15.3777C22.5516 16.3548 22.8866 17.3319 23.215 18.3117C23.8622 18.325 24.5102 18.3225 25.1582 18.3199C25.4174 18.3189 25.6765 18.3179 25.9356 18.3179C26.2155 17.4888 26.499 16.661 26.7825 15.8332C27.066 15.0054 27.3495 14.1777 27.6293 13.3485C27.6451 13.3123 27.6576 13.2726 27.6702 13.2326C27.7035 13.1273 27.7375 13.0193 27.835 12.9629C27.8442 14.1534 27.8426 15.3439 27.8411 16.5341C27.8404 17.1291 27.8396 17.724 27.8402 18.3188C28.1113 18.3188 28.3826 18.3194 28.6539 18.3201C29.3472 18.3217 30.0408 18.3233 30.7339 18.3144V10.5618C29.1585 10.5583 27.583 10.5592 26.0076 10.5609C25.8384 11.0614 25.6684 11.5615 25.4984 12.0615C25.2153 12.894 24.9323 13.7264 24.6533 14.5601C24.6399 14.6102 24.6101 14.6507 24.5804 14.6914C24.5664 14.7104 24.5525 14.7294 24.5402 14.7494C24.3733 14.25 24.2109 13.749 24.0484 13.2479C23.756 12.346 23.4635 11.4441 23.1456 10.5521C22.1756 10.5636 21.2057 10.5619 20.2357 10.5601Z" fill="#00A1E4"/>
<path d="M1.4473 10.5599C1.20948 10.56 0.971685 10.5601 0.733887 10.5601V18.3188C1.18348 18.3213 1.63307 18.3209 2.08266 18.3204C2.59221 18.32 3.10176 18.3195 3.61132 18.3232C3.61572 17.8895 3.61489 17.4559 3.61406 17.0223C3.61312 16.5268 3.61217 16.0314 3.61903 15.5356C3.97019 15.899 4.32253 16.2611 4.67488 16.6233C5.22298 17.1866 5.77109 17.75 6.31474 18.3179C9.01238 18.3217 11.7105 18.321 14.4084 18.3203C15.4874 18.32 16.5664 18.3197 17.6453 18.3197C17.6427 18.0663 17.6437 17.8128 17.6448 17.5592C17.6465 17.157 17.6482 16.7548 17.635 16.3528C16.7191 16.3591 15.8032 16.3583 14.8871 16.3574C14.2497 16.3569 13.6123 16.3563 12.9747 16.3581C12.9736 15.0699 12.974 13.7816 12.9744 12.4933C12.9746 11.8492 12.9747 11.2051 12.9747 10.5609C12.0019 10.5592 11.029 10.5592 10.0562 10.5609C10.0549 11.5316 10.0556 12.5022 10.0562 13.4729C10.0573 15.05 10.0585 16.6271 10.051 18.2038C9.26963 17.4372 8.50681 16.6498 7.74385 15.8623C7.14514 15.2443 6.54636 14.6262 5.93846 14.018C6.55341 13.3637 7.18049 12.7213 7.8076 12.0789C8.29932 11.5751 8.79107 11.0714 9.27703 10.5618C8.31789 10.5592 7.35874 10.5592 6.3996 10.5618C5.92775 11.0279 5.46125 11.4995 4.99475 11.9711C4.52825 12.4427 4.06175 12.9143 3.58989 13.3804C3.5885 12.8741 3.58886 12.3679 3.58921 11.8618C3.58952 11.4281 3.58982 10.9944 3.58903 10.5609C2.87476 10.5596 2.16097 10.5598 1.4473 10.5599Z" fill="#00A1E4"/>
</g>
<defs>
<clipPath id="clip0_1821_104993">
<rect width="30" height="18" fill="white" transform="translate(0.733887 0.323242)"/>
</clipPath>
</defs>
</svg>
